<?xml version="1.0" standalone="no"?>
<!DOCTYPE svg PUBLIC "-//W3C//DTD SVG 1.1//EN" "http://www.w3.org/Graphics/SVG/1.1/DTD/svg11.dtd">
<svg width="3100mm" height="3100mm" viewbox="0 0 310 310" version="1.1" xmlns="http://www.w3.org/2000/svg"><polyline points="277.6493924113819,164.28043862750383 280.67410349919084,164.5093076423799 280.73050769801654,164.51244478339143 280.8999089438795,164.51734986573686 281.18236242074306,164.51725708598673 281.5776194648696,164.50540195332863 282.08512778366367,164.47503341710853 282.70403212822316,164.41942597972852 283.4331754188347,164.33189177860842 284.27110032208435,164.2057926209561 285.21605127768424,164.03455195514303 286.2659769725543,163.81166676255813 287.4185332591323,163.53071935390332 288.67108651433034,163.1853890540085 290.02071743499783,162.7694637593739 291.46422526520394,162.27685135279825 292.9981324501057,161.70159095962018 294.6186897106304,161.03786403028772 296.32188153266907,160.28000523417705 298.10343206395237,159.4225131498049 299.95881141126375,158.46006073682187 299.95881141126375,151.53993926317813 298.10343206395237,150.5774868501951 296.32188153266907,149.71999476582295 294.6186897106304,148.96213596971228 292.9981324501057,148.29840904037982 291.46422526520394,147.72314864720175 290.02071743499783,147.2305362406261 288.67108651433034,146.8146109459915 287.4185332591323,146.46928064609668 286.2659769725543,146.18833323744187 285.21605127768424,145.96544804485697 284.27110032208435,145.7942073790439 283.4331754188347,145.66810822139158 282.70403212822316,145.58057402027148 282.08512778366367,145.52496658289147 281.5776194648696,145.49459804667137 281.18236242074306,145.48274291401327 280.8999089438795,145.48265013426314 280.73050769801654,145.48755521660857 280.67410349919084,145.4906923576201 277.6493924113819,145.71956137249617 276.4835786005807,135.7453867762414 279.4795390367107,135.27054021594185 279.5351463275632,135.26058509148567 279.7011125307562,135.2262913408821 279.97593104111286,135.16106280751106 280.35779989872003,135.0583746840897 280.84462479867557,134.91178526284602 281.4340225389376,134.71494756681042 282.1233249017738,134.46162084654983 282.9095829637701,134.14568192683208 283.7895718288131,133.76113638789343 284.7597957779328,133.30212956618323 285.81649382936223,132.76295735968012 286.95564570165675,132.1380768231129 288.1729781722023,131.4221165386736 289.46397182294515,130.60988674808468 290.82386816468295,129.69638923217082 292.24767713077415,128.6768269243943 293.7301849306575,127.54661324513415 295.2659622531093,126.30138114382947 296.84937280872214,124.9369918364614 295.25348296943434,118.20340313274306 293.226158811285,117.69477367285052 291.2948789214488,117.27124922563296 289.46282258923566,116.92660167653452 287.732881695658,116.65449181620575 286.1076570009675,116.4484809824603 284.58945487206256,116.30204282224439 283.18028445354514,116.20857515770645 281.8818552856427,116.16141194033676 280.69557537165366,116.15383527705137 279.6225496970069,116.17908751201577 278.6635792014579,116.23038334794627 277.81916020537784,116.30092199058791 277.0894842905195,116.38389930004811 276.4744386350752,116.47251993266624 275.97360680227246,116.560009457118 275.5862699811839,116.6396264284933 275.3114086778615,116.70467440414448 275.1477048543409,116.74851388518002 275.09354451250033,116.76457416757529 272.20314573067355,117.68482036979448 268.76855362256987,108.24835610774267 271.57425040443377,107.09539307324266 271.6260629838699,107.07288236665504 271.7796468634199,107.00123856807414 272.0320148702423,106.87439076819993 272.37990889237335,106.68640559732884 272.8198055171239,106.43149796470405 273.347922068351,106.10404158115571 273.9602230346121,105.69857925081503 274.6524268797175,105.20983291797161 275.4200132267125,104.63271345544746 276.2582304058517,103.96233018117978 277.162103356664,103.19400009004046 278.1264418737611,102.3232567882715 279.14584918560274,101.3458591182811 280.2147308550096,100.25779946192736 281.32730398980425,99.05531171081066 282.47760675156087,97.73487889250617 283.6595081500643,96.2932404420904 284.86671811071005,94.7273991087508 286.0927978017207,93.03462748771693 282.98705295746174,86.85058106386593 280.89707755859365,86.82319490290048 278.92018410895867,86.85647040541224 277.05802989765084,86.94361414190662 275.31196693237155,87.07779086358488 273.68304101185663,87.25213568664317 272.1719912539943,87.45976629190837 270.7792500796394,87.69379512345552 269.5049436515599,87.94734156986713 268.34889276738016,88.21354411183002 267.31061420481916,88.48557241982046 266.38932251695644,88.75663938570207 265.58393227469435,89.02001307215464 264.8930607530288,89.26902856396424 264.3150310571833,89.49709970533749 263.84787568411383,89.69773070755208 263.48934051434645,89.86452761142587 263.2368892285725,89.99120958927396 263.0877081428934,90.07162007122953 263.0387114560856,90.09973768102758 260.43844712672103,91.66175035963141 254.92023647087385,83.2717186626875 257.3844137587338,81.50279568961034 257.4296383971848,81.46894295891005 257.5625602063917,81.36381144807763 257.7788724851089,81.1821827794248 258.0740366149818,80.91903489032377 258.44329002362406,80.56955118277305 258.88165448584175,80.12912937010799 259.38394475194843,79.59339000886591 259.944777491703,78.95818470420767 260.55858054200115,78.21960397770451 261.219602446068,77.37398478671739 261.9219222715261,76.41791768503002 262.6594596943594,75.34825361484116 263.42598533545197,74.16211032067878 264.2151313360554,72.85687837626803 265.0204021582314,71.43022681586352 265.8351855960222,69.88010836204715 266.6527639828287,68.20476424249185 267.4663255802153,66.40272858870063 268.26897613312246,64.47283241024849 263.82080779233854,59.17171180965539 261.78085226747453,59.62704534264334 259.86492009561056,60.11532690393096 258.0730572207402,60.629563984627424 256.40500289016904,61.16279378651669 254.86019156183647,61.708095291840195 253.43775525858365,62.25860124291344 252.1365263655984,62.807510015660895 250.95504086672165,63.348097371299716 249.89154201474986,63.87372807056968 248.9439844303307,64.37786733509051 248.11003862351433,64.85409214062949 247.38709593149807,65.2961023272846 246.7722738655838,65.69773151182487 246.2624218598575,66.05295778768782 245.8541274136021,66.35591419840443 245.5437226189615,66.6008989705151 245.3272910648967,66.78238549234389 245.2006751080021,66.89503202532383 245.15948350029515,66.93369113490245 242.9895345464422,69.05326178207547 235.6851935076438,62.16197143070046 237.6750068660827,59.87245161439334 237.71120549158388,59.8290818690549 237.81629938130772,59.69613031293221 237.98489448098374,59.4695124240407 238.21141634395667,59.145388187524446 238.49011998965307,58.720169162182344 238.81510002123673,58.19052517432027 239.18030098893016,57.55339062981231 239.5795279851676,56.805970435730146 240.00645745745038,55.94574552338827 240.4546482244975,54.97047796514818 240.91755268102216,53.87821567783347 241.38852817622228,52.66729670612081 241.86084855084675,51.33635307979648 242.32771581749137,49.884314239298604 242.78227196858853,48.31041002450269 243.21761089638352,46.6141732222529 243.62679040903805,44.79544166868996 244.00284432686783,42.85435990298254 244.33879464260596,40.79138036962749 238.78800471191408,36.658970376014196 236.90804359142248,37.57247645433347 235.15636109663518,38.48944068904096 233.53138934959307,39.403048459813874 232.03126889445082,40.30658478527289 230.65385333687055,41.19344562756358 229.39671439751953,42.05714900612938 228.25714737233528,42.891345906058575 227.23217699172181,43.689830966656245 226.31856367034425,44.44655293618125 225.51281013870909,45.155624878990565 224.81116844724338,45.8113341216541 224.20964733312627,46.40815192493909 223.70401993967744,46.94074286891366 223.28983187766937,47.403973938787615 222.96240961750874,47.792923299487185 222.71686920081927,48.10288874735831 222.54812525956447,48.329395827799985 222.45090033046387,48.468205608053836 222.4197344520913,48.51532209480912 220.7970833835226,51.078184108331826 212.10039087783275,46.0571463491124 213.5085689536532,43.37045829549258 213.53379008893407,43.31990960971302 213.60539042037735,43.166305461103846 213.71717933554947,42.90691538102165 213.86284707935656,42.5392884185772 214.03597597642778,42.06125774316375 214.23005181975682,41.470944824583555 214.43847541033992,40.76676318502027 214.654574232357,39.94742171763964 214.87161424826704,39.0119275671443 215.0828117980331,37.95958856815456 215.28134558655475,36.79001523784322 215.46036874326796,35.50312231980651 215.61302093777275,34.099129876717285 215.73244053526966,32.57856392986976 215.81177677552495,30.94225664429203 215.84420195904335,29.19134605867262 215.82292362410652,27.32727535991573 215.74119669833132,25.351791702711665 215.5923356084215,23.266944575079236 209.23816860975376,20.526024480835872 207.61955108424996,21.848455755352035 206.12655192323948,23.144668884238996 204.75607395151687,24.408394513687426 203.50475925383196,25.633527485539048 202.36899629624392,26.814136767233634 201.34492740641338,27.944475100592243 200.42845660232376,29.01898835690416 199.6152577584961,30.032324586163753 198.9007830983482,30.97934274869648 198.28027200094903,31.855121117820985 197.7487601100341,32.654965342613096 197.30108873277618,33.37441616027235 196.93191451545036,34.0092567480355 196.63571938279196,34.55551970504065 196.40682072752142,35.00949365501211 196.2393818362026,35.36772946111738 196.12742253730855,35.627046044836135 196.06483005709555,35.784535801180866 196.0453700686274,35.83756960311618 195.057494424457,38.705558428467455 185.43729139591247,35.825458706650295 186.18791894455367,32.886442464111695 186.20080291168296,32.831439930625436 186.2350496924445,32.665464028940264 186.28400585376033,32.387285544025204 186.3409664926282,31.99597472035464 186.39918721742043,31.490903152315013 186.45189619354636,30.87174522525416 186.49230623730233,30.138479105095016 186.51362694166903,29.291387275001085 186.50907681776988,28.331056618149105 186.47189543568055,27.258378046233076 186.39535554827143,26.07454567389493 186.2727751817809,24.781055539845312 186.09752967684773,23.37970387600805 185.86306366378525,21.87258492658927 185.56290295595105,20.262088319537554 185.19066634515647,18.5508959934256 184.7400772831724,16.741978683341472 184.20497543351502,14.83859196993555 183.5793280778455,12.84427189631893 176.76433879881486,11.642605413186885 175.4943249580624,13.302669271592208 174.3404971020472,14.90825210936805 173.29839572783467,16.45396782170525 172.36334548685008,17.934650204323106 171.53046440427906,19.34536097345614 170.7946733828901,20.681397429478977 170.15070597816322,21.938299754398457 169.59311843128083,23.111857933908283 169.11629994622606,24.19811829518011 168.71448319693698,25.193389652053526 168.38175505018876,26.094249049783684 168.11206748961337,26.897547102014272 167.8992487260238,27.600412913157342 167.73701447898392,28.200258579886665 167.61897941435737,28.694783265980234 167.53866872238007,29.081976845286633 167.4895298206298,29.360123108132626 167.46494416611412,29.527802527038986 167.4582391605657,29.583894578164717 167.15839557247295,32.602396195418635 157.13330965643928,32.018501432492926 157.1859201524613,28.985600127406798 157.1857723734362,28.929108947030954 157.18081935070072,28.759709096090887 157.16430351883184,28.47773888046858 157.12948628997546,28.083839863362982 157.0696601481453,27.578955941663125 156.97816070252188,26.96433197023248 156.8483786835321,26.241511935814145 156.67377186555737,25.412336682828794 156.44787690020624,24.47894119390341 156.16432104419394,23.44375142852556 155.8168337659959,22.30948072377697 155.3992582155879,21.079125761648527 154.9055625417483,19.755962107987074 154.3298510415799,18.343539328663326 153.66637512710923,16.84567568908534 152.9095440940395,15.266452443707152 152.0539356779704,13.610207722703194 151.0943063836518,11.88153002348838 150.02560157310953,10.085251315266788 143.11718784974278,10.48762059439153 142.2642444686274,12.395822564387885 141.51179107598247,14.224217724678482 140.85424625410172,15.968593585758725 140.28586927033763,17.62500140863554 139.80077089752828,19.189761882494167 139.39292442899642,20.659470390016935 139.0561768731058,22.03100185387055 138.7842603121473,23.30151515840896 138.5708034101348,24.46845714117569 138.4093430539164,25.529566149332595 138.29333611184956,26.482875156690426 138.21617129415336,27.326714437570686 138.17118109893124,28.059713794284903 138.15165382776055,28.680804335580746 138.15084565466424,29.189219803966182 138.16199273222065,29.584497450391993 138.1783233185266,29.866478455339703 138.19306990870695,30.03530789593225 138.19948135466294,30.09143425925332 138.6038344680935,33.09772046491369 128.71432064120086,34.841508578684284 128.0660778391454,31.87822670544506 128.05290628077142,31.82329233233591 128.0090204732766,31.659600921952645 127.92792302099406,31.389040062932523 127.80320493023316,31.013788050361057 127.62855716457204,30.5363101979041 127.39778205599664,29.95935471949302 127.1048045564977,29.285948185965964 126.74368331493379,28.519390562601657 126.30862156418348,27.66324983401124 125.79397780384159,26.721356223372 125.194276263966,25.697796013500977 124.50421713564842,24.596904977767565 123.71868655446744,23.423261429338908 122.83276632318459,22.18167889773565 121.84174336036091,20.87719844214851 120.74111886190715,19.515080611429113 119.52661716292931,18.100797061117646 118.19419428759701,16.64002183831019 116.74004617514225,15.13862234559329 110.11064237944231,17.123335554987733 109.72075185641613,19.176803974452895 109.4102378843043,21.129442200904577 109.172698026302,22.978438456542165 109.00163565007205,24.721274345201465 108.89047176586556,26.355727881616872 108.83255695887647,27.879876074579087 108.82118339972408,29.292097061142798 108.84959691687368,30.591071789602054 108.91100911474223,31.77578524952108 108.99860952119064,32.845527247673886 109.1055777480793,33.799892729317875 109.22509564855767,34.63878164479584 109.3503594547727,35.36239836203096 109.4745918797145,35.971250626048786 109.59105416696919,36.466148067226996 109.69305807222293,36.848200260539585 109.77397776045032,37.11881433862422 109.82726160283306,37.27969216206074 109.84644385758246,37.332827050802734 110.93319489152839,40.16482817737423 101.71239940398976,44.14229109926505 100.39825024110706,41.40837995067598 100.37276498550546,41.35796391110706 100.29231228849277,41.208805587584294 100.15100520044041,40.96424009110822 99.94310983232998,40.62786501619897 99.66305574909063,40.20353418760142 99.30544612340043,39.69535102139038 98.86506763622468,39.10766150928184 98.3369001106771,38.445046835430176 97.71612586612208,37.71231563545682 96.99813877978119,36.91449590790579 96.17855304346969,36.05682658876519 95.25321160346527,35.14474880011821 94.21819427190141,34.18389678440445 93.06982549848445,33.180088536172036 91.80468179175034,32.13931614358867 90.41959877951027,31.067735852353223 88.9116778985776,29.971657865005184 87.27829270432557,28.857535888974212 85.51709479109294,27.731956447037092 79.52409379764335,31.192017183858894 79.6182752317221,33.28004903877904 79.76644056875342,35.25166309918218 79.96171150985943,37.1055998826409 80.197185758144,38.84090710320879 80.46594923631164,40.456939888970226 80.7610882931008,41.95336054377832 81.07570188220446,43.330137854126676 81.40291369739806,44.58754594266847 81.7358842476646,45.72616267046388 82.06782285619371,46.74686759059979 82.39199956723859,47.65083945638621 82.70175694494067,48.439553287890206 82.99052174837647,49.11477700111884 83.25181646724576,49.6785676047099 83.47927070280045,50.13326696952754 83.66663237881656,50.48149717709491 83.8077787676278,50.726155453321084 83.89672731647806,50.87040869449844 83.92764625970214,50.91768759305583 85.63820818462843,53.42272972676882 77.58322650789091,59.41944140113286 75.67401710570681,57.06228683486091 75.63759206960367,57.01910707057509 75.52490970879347,56.892522997742134 75.33101088666419,56.68713745302857 75.05114593431077,56.40777338313731 74.68078332160988,56.059465363202804 74.21561800628966,55.647450795220564 73.65157944966849,55.17716079824605 72.98483928815055,54.65421080248582 72.21181864999622,54.08439085978047 71.32919510732498,53.473655683337896 70.33390925376402,52.82811442992198 69.22317089861909,52.15402023802994 67.99446486892121,51.45775953590551 66.64555641118923,50.74584113353221 65.17449618524496,50.02488511303069 63.57962484292379,49.301611532147916 61.85957718503818,48.58282895577044 60.013285890474506,47.875422830623464 58.039984811835524,47.18634371852636 53.0064708554235,51.93521921285014 53.579646901118025,53.94524816545963 54.178503915622,55.82954783548463 54.796058548857275,57.58847893489454 55.425374943981126,59.22270662594269 56.059576675848035,60.733197915275284 56.69185857347004,62.12121860709446 57.315498410806484,63.38832982006106 57.92386845039138,64.53638407316414 58.510446824504825,65.56752094632056 59.06882873880973,66.48416232199541 59.59273748360839,67.28900721465533 60.07603523812455,67.98502619537801 60.51273365348392,68.57545541944486 60.897004200352825,69.06379026523783 61.223188267494436,69.45377859324302 61.485806997822095,69.74941363443918 61.679570848861985,69.9549265178081 61.79938886488779,70.07477844715586 61.84037764835429,70.11365253786973 64.08253362812569,72.15668820888976 57.62761190933659,79.84936435717105 55.226268240903266,77.99604118601067 55.1808671074232,77.96242552927724 55.04202981805351,77.86523988726559 54.805992397537096,77.71010668219209 54.469245452962426,77.50281420663738 54.028540655115506,77.24930637087675 53.48089683271773,76.95567221312922 52.82360567123452,76.62813518675567 52.05423700843292,76.27304223871884 51.1706437193711,75.89685269388517 50.17096618401351,75.50612695999595 49.053636331188684,75.10751506836853 47.81738125313305,74.7077450655991 46.46122638540086,74.31361127173587 44.98449824746211,73.93196242056685 43.38682673985808,73.56968969782493 41.668146994337434,73.2337146932526 39.8287007739532,72.93097728258812 37.869037420662565,72.6684234556371 35.790014348536545,72.45299310667464 31.987345469428774,78.23467025140081 33.00861605775464,80.05833512058786 34.02588021307098,81.75373731729088 35.03242600830973,83.32283830180046 36.02165794051926,84.76788482550039 36.98710794656351,86.09140364202013 37.92244620425747,87.29619581607864 38.821491704772754,88.38533063819297 39.67822258244421,89.36213915390978 40.48678618842594,90.2302073166955 41.24150889497466,90.9933687740829 41.93690561748629,91.65569729712666 42.56768904177362,92.22149886365943 43.12877854444935,92.69530340626818 43.61530879467145,93.08185623632556 44.022638025910766,93.38610915581086 44.34635596682173,93.61321126904264 44.582291420726804,93.76849950681688 44.72651948367046,93.85748887580138 44.77536839145314,93.88586244637916 47.42824321683972,95.35675107286147 42.921367956653185,104.33067753273116 40.157347080700504,103.08109888855441 40.105417436701046,103.05885956812898 39.94790997297849,102.99631166005506 39.682458792511014,102.89979406586187 39.30698397066081,102.7757483756565 38.819695497391976,102.63070739711367 38.21909678813441,102.4712835430494 37.503987758438186,102.3041570931484 36.673467458108234,102.13606434557605 35.72693626106185,101.97378567434903 34.664097607705926,101.82413350846275 33.48495929719307,101.69394024887828 32.189834327477385,101.59004613955736 30.779341281657935,101.51928710880024 29.25440425966555,101.48848259718815 27.616252354918544,101.50442338845963 25.8664186761431,101.57385945965811 24.00673891512409,101.70348786687624 22.03934946172231,101.89994068289162 19.966685068062645,102.16977300293844 17.599864129816012,108.67256008666348 19.014172299010454,110.21154662729214 20.39500262121709,111.62665177941044 21.73627643410333,112.92133200879809 23.032094153879967,114.0992945330208 24.2767447743783,115.164489634749 25.46471506456868,116.12110263309455 26.590698452620728,116.97354552418435 27.649603585006957,117.72644830259517 28.636562549569618,118.38464997566334 29.54693875189946,118.95318928305853 30.376334434816698,119.43729513437154 31.120597831199646,119.84237677781036 31.775829940869897,120.17401371342922 32.33839092272207,120.43794536462715 32.804906093769745,120.64006052195015 33.17227152727821,120.78638657351004 33.437659242658825,120.8830785365963 33.598521980314985,120.93640790530156 33.65259755515123,120.95275132920919 36.57317405764536,121.77219692457477 34.25731206789921,131.54358699776708 31.27962306528991,130.9651179887229 31.22396445132057,130.95545393212603 31.056278081383724,130.930915731904 30.77572368281365,130.89821703707673 30.381762928521866,130.86410546748772 29.87416062755497,130.83535054285838 29.252985463312896,130.8187315737153 28.51861027829365,130.8210255304601 27.671711904798286,130.848994906883 26.713270541600593,130.9093755944328 25.64456867715427,131.00886478354838 24.467189560481728,131.15410890833036 23.183015221453985,131.35169165078344 21.79422404273987,131.60812202079583 20.303287886264712,131.92982252793513 18.712968777579476,132.32311746103642 17.026315152099585,132.79422129143458 15.246657667722445,133.34922721554912 13.377604588882207,133.99409585236958 11.42303674764031,134.73464411120847 10.619659679664437,141.60797419906504 12.350759710246223,142.77931524837823 14.020715279258326,143.83783467087477 15.624408691363584,144.78829759885875 17.156954330024263,145.6356718590191 18.613706127859786,146.38511830230618 19.99026466470775,147.0419808705879 21.282483884396754,147.61177641374792 22.486477421723464,148.10018427118695 23.598624531622704,148.5130356319733 24.615575613023907,148.85630268815373 25.53425732039966,149.13608759598554 26.35187725653381,149.35861126008115 27.06592824056574,149.53020195566987 27.67419214590285,149.65728380437614 28.174743303134747,149.74636511909 28.565951463631293,149.8040266336633 28.846484320058224,149.83690963330386 29.015309580602093,149.8517040016592 29.071696594255528,149.85513620068346 32.10252573864469,149.97896224078056 32.10252573864469,160.02103775921947 29.071696594255528,160.14486379931657 29.015309580602093,160.14829599834084 28.846484320058224,160.16309036669617 28.565951463631293,160.19597336633672 28.174743303134747,160.25363488091003 27.67419214590285,160.3427161956239 27.06592824056574,160.46979804433013 26.35187725653381,160.64138873991885 25.53425732039966,160.86391240401448 24.615575613023907,161.1436973118463 23.598624531622704,161.48696436802672 22.486477421723464,161.89981572881308 21.282483884396754,162.3882235862521 19.99026466470775,162.95801912941212 18.613706127859786,163.61488169769385 17.156954330024263,164.36432814098092 15.624408691363584,165.21170240114128 14.020715279258326,166.16216532912526 12.350759710246223,167.22068475162183 10.619659679664437,168.392025800935 11.423036747640282,175.26535588879156 13.377604588882235,176.00590414763045 15.246657667722474,176.6507727844509 17.026315152099613,177.20577870856545 18.712968777579476,177.6768825389636 20.30328788626474,178.0701774720649 21.7942240427399,178.3918779792042 23.183015221453985,178.6483083492166 24.467189560481728,178.84589109166967 25.644568677154297,178.99113521645165 26.713270541600593,179.0906244055672 27.6717119047983,179.15100509311702 28.518610278293664,179.17897446953992 29.25298546331291,179.18126842628473 29.874160627554986,179.16464945714165 30.38176292852188,179.13589453251228 30.775723682813663,179.10178296292327 31.056278081383738,179.06908426809602 31.223964451320583,179.044546067874 31.279623065289925,179.03488201127712 34.25731206789922,178.45641300223295 36.573174057645346,188.22780307542513 33.65259755515122,189.04724867079074 33.59852198031497,189.06359209469835 33.43765924265881,189.11692146340363 33.1722715272782,189.21361342648987 32.80490609376973,189.3599394780498 32.338390922722056,189.56205463537276 31.775829940869883,189.8259862865707 31.120597831199632,190.15762322218956 30.376334434816684,190.56270486562838 29.546938751899447,191.04681071694137 28.636562549569604,191.61535002433658 27.649603585006943,192.27355169740474 26.5906984526207,193.02645447581557 25.46471506456865,193.87889736690533 24.276744774378272,194.8355103652509 23.032094153879967,195.9007054669791 21.736276434103303,197.0786679912018 20.39500262121706,198.37334822058946 19.014172299010454,199.78845337270775 17.599864129815984,201.32743991333643 19.966685068062617,207.83022699706146 22.03934946172228,208.10005931710828 24.00673891512406,208.29651213312366 25.86641867614307,208.4261405403418 27.616252354918515,208.4955766115403 29.25440425966552,208.51151740281176 30.779341281657906,208.4807128911997 32.18983432747737,208.40995386044256 33.48495929719304,208.30605975112164 34.6640976077059,208.1758664915372 35.72693626106182,208.0262143256509 36.673467458108206,207.86393565442387 37.50398775843816,207.6958429068515 38.21909678813438,207.52871645695052 38.81969549739195,207.36929260288628 39.30698397066078,207.22425162434342 39.682458792510985,207.10020593413805 39.947909972978465,207.00368833994486 40.10541743670102,206.94114043187093 40.157347080700475,206.9189011114455 42.92136795665316,205.66932246726876 47.428243216839704,214.6432489271385 44.77536839145313,216.11413755362082 44.726519483670444,216.1425111241986 44.58229142072679,216.2315004931831 44.34635596682172,216.38678873095733 44.02263802591075,216.61389084418911 43.615308794671435,216.9181437636744 43.12877854444933,217.3046965937318 42.567689041773605,217.77850113634054 41.936905617486275,218.3443027028733 41.24150889497464,219.0066312259171 40.486786188425924,219.76979268330447 39.67822258244419,220.63786084609018 38.821491704772725,221.614669361807 37.922446204257454,222.70380418392133 36.9871079465635,223.90859635797983 36.02165794051925,225.2321151744996 35.03242600830971,226.6771616981995 34.02588021307096,228.24626268270907 33.00861605775461,229.94166487941212 31.98734546942876,231.76532974859913 35.790014348536516,237.54700689332532 37.869037420662536,237.33157654436286 39.82870077395319,237.06902271741183 41.66814699433742,236.76628530674736 43.386826739858066,236.43031030217503 44.9844982474621,236.0680375794331 46.46122638540085,235.6863887282641 47.817381253133036,235.2922549344009 49.05363633118867,234.89248493163143 50.170966184013494,234.49387304000402 51.170643719371085,234.1031473061148 52.05423700843292,233.72695776128114 52.8236056712345,233.37186481324431 53.48089683271772,233.04432778687075 54.02854065511549,232.75069362912322 54.46924545296241,232.49718579336258 54.80599239753708,232.28989331780787 55.04202981805349,232.1347601127344 55.18086710742318,232.03757447072275 55.22626824090325,232.0039588139893 57.62761190933658,230.15063564282892 64.08253362812567,237.8433117911102 61.84037764835429,239.88634746213023 61.799388864887774,239.9252215528441 61.67957084886197,240.04507348219187 61.48580699782208,240.2505863655608 61.22318826749442,240.54622140675696 60.89700420035281,240.93620973476214 60.512733653483906,241.4245445805551 60.07603523812453,242.01497380462195 59.592737483608374,242.71099278534464 59.068828738809714,243.51583767800457 58.51044682450481,244.4324790536794 57.92386845039137,245.4636159268358 57.31549841080647,246.61167017993893 56.69185857347003,247.87878139290552 56.05957667584802,249.2668020847247 55.42537494398111,250.77729337405728 54.796058548857246,252.41152106510543 54.17850391562199,254.17045216451532 53.57964690111801,256.05475183454035 53.00647085542347,258.06478078714986 58.039984811835495,262.81365628147364 60.01328589047449,262.1245771693765 61.85957718503815,261.4171710442296 63.57962484292378,260.69838846785206 65.17449618524495,259.9751148869693 66.64555641118922,259.2541588664678 67.9944648689212,258.54224046409445 69.22317089861907,257.84597976197006 70.333909253764,257.171885570078 71.32919510732496,256.52634431666206 72.2118186499962,255.91560914021952 72.98483928815054,255.34578919751416 73.65157944966847,254.82283920175394 74.21561800628965,254.35254920477942 74.68078332160987,253.94053463679717 75.05114593431075,253.59222661686266 75.33101088666417,253.31286254697142 75.52490970879346,253.10747700225784 75.63759206960366,252.9808929294249 75.6740171057068,252.9377131651391 77.5832265078909,250.58055859886713 85.63820818462831,256.5772702732311 83.92764625970203,259.0823124069441 83.89672731647795,259.1295913055015 83.80777876762768,259.27384454667884 83.66663237881644,259.518502822905 83.47927070280033,259.86673303047235 83.25181646724565,260.32143239529 82.99052174837635,260.8852229988811 82.70175694494054,261.5604467121097 82.39199956723847,262.3491605436137 82.0678228561936,263.2531324094001 81.73588424766447,264.27383732953604 81.40291369739795,265.41245405733144 81.07570188220434,266.66986214587325 80.76108829310067,268.0466394562216 80.46594923631152,269.5430601110297 80.19718575814389,271.1590928967911 79.9617115098593,272.894400117359 79.7664405687533,274.7483369008177 79.61827523172197,276.7199509612209 79.52409379764322,278.807982816141 85.51709479109292,282.2680435529629 87.27829270432552,281.1424641110258 88.91167789857757,280.0283421349948 90.41959877951024,278.9322641476467 91.80468179175031,277.8606838564113 93.06982549848442,276.81991146382796 94.21819427190138,275.81610321559555 95.25321160346525,274.85525119988176 96.17855304346966,273.9431734112348 96.99813877978114,273.0855040920942 97.71612586612206,272.28768436454317 98.33690011067708,271.55495316456984 98.86506763622465,270.89233849071815 99.3054461234004,270.30464897860963 99.6630557490906,269.79646581239854 99.94310983232995,269.372134983801 100.15100520044038,269.03575990889175 100.29231228849274,268.7911944124157 100.37276498550543,268.64203608889295 100.39825024110704,268.591620049324 101.71239940398974,265.8577089007349 110.93319489152836,269.83517182262574 109.84644385758241,272.66717294919727 109.827261602833,272.72030783793923 109.77397776045028,272.88118566137575 109.69305807222287,273.1517997394604 109.59105416696914,273.53385193277296 109.47459187971444,274.0287493739512 109.35035945477264,274.637601637969 109.22509564855761,275.36121835520413 109.10557774807924,276.2001072706821 108.99860952119059,277.1544727523261 108.91100911474217,278.2242147504789 108.84959691687362,279.4089282103979 108.82118339972402,280.70790293885716 108.83255695887642,282.1201239254209 108.8904717658655,283.6442721183831 109.00163565007199,285.27872565479845 109.17269802630194,287.0215615434578 109.41023788430424,288.8705577990954 109.72075185641606,290.8231960255471 110.11064237944225,292.87666444501224 116.74004617514218,294.86137765440674 118.19419428759696,293.3599781616898 119.52661716292926,291.89920293888235 120.7411188619071,290.48491938857086 121.84174336036085,289.1228015578515 122.83276632318453,287.81832110226435 123.71868655446738,286.57673857066106 124.50421713564835,285.40309502223243 125.19427626396595,284.30220398649897 125.79397780384153,283.278643776628 126.30862156418343,282.33675016598875 126.74368331493373,281.48060943739836 127.10480455649764,280.714051814034 127.39778205599659,280.04064528050696 127.62855716457199,279.46368980209587 127.80320493023311,278.9862119496389 127.927923020994,278.6109599370675 128.00902047327654,278.3403990780473 128.05290628077137,278.17670766766406 128.06607783914535,278.12177329455494 128.7143206412008,275.1584914213157 138.60383446809345,276.9022795350863 138.19948135466288,279.90856574074667 138.1930699087069,279.96469210406775 138.17832331852654,280.1335215446603 138.1619927322206,280.415502549608 138.15084565466418,280.8107801960338 138.1516538277605,281.3191956644192 138.17118109893119,281.9402862057151 138.2161712941533,282.6732855624293 138.2933361118495,283.5171248433096 138.40934305391633,284.4704338506674 138.57080341013474,285.5315428588243 138.78426031214724,286.69848484159104 139.05617687310576,287.9689981461295 139.39292442899637,289.34052960998304 139.8007708975282,290.81023811750583 140.28586927033754,292.37499859136443 140.85424625410164,294.03140641424125 141.51179107598242,295.7757822753215 142.26424446862734,297.6041774356121 143.1171878497427,299.51237940560844 150.02560157310947,299.91474868473324 151.09430638365174,298.1184699765116 152.05393567797032,296.3897922772968 152.9095440940394,294.7335475562928 153.66637512710918,293.15432431091466 154.32985104157984,291.6564606713367 154.90556254174822,290.2440378920129 155.39925821558785,288.9208742383515 155.81683376599585,287.69051927622303 156.16432104419388,286.55624857147444 156.44787690020618,285.52105880609656 156.67377186555728,284.5876633171712 156.84837868353205,283.7584880641858 156.97816070252182,283.0356680297675 157.06966014814523,282.42104405833686 157.1294862899754,281.916160136637 157.1643035188318,281.52226111953144 157.18081935070066,281.2402909039091 157.18577237343615,281.07089105296905 157.18592015246125,281.01439987259323 157.13330965643922,277.98149856750706 167.158395572473,277.39760380458137 167.45823916056577,280.41610542183525 167.46494416611418,280.472197472961 167.48952982062985,280.63987689186735 167.53866872238012,280.91802315471335 167.61897941435743,281.3052167340197 167.73701447898398,281.7997414201133 167.89924872602387,282.39958708684264 168.11206748961342,283.1024528979857 168.38175505018881,283.9057509502163 168.71448319693704,284.8066103479465 169.11629994622612,285.8018817048199 169.59311843128089,286.88814206609175 170.15070597816327,288.0617002456015 170.79467338289015,289.31860257052097 171.53046440427912,290.65463902654386 172.36334548685014,292.06534979567687 173.29839572783473,293.54603217829475 174.34049710204727,295.09174789063195 175.49432495806246,296.6973307284078 176.76433879881492,298.3573945868131 183.57932807784556,297.15572810368104 184.2049754335151,295.1614080300644 184.74007728317247,293.2580213166585 185.19066634515653,291.44910400657443 185.5629029559511,289.73791168046245 185.8630636637853,288.1274150734107 186.09752967684778,286.6202961239919 186.27277518178096,285.21894446015466 186.39535554827148,283.92545432610507 186.4718954356806,282.7416219537669 186.50907681776994,281.6689433818509 186.5136269416691,280.7086127249989 186.4923062373024,279.86152089490497 186.4518961935464,279.1282547747458 186.3991872174205,278.509096847685 186.34096649262827,278.00402527964536 186.28400585376036,277.6127144559748 186.23504969244456,277.3345359710597 186.200802911683,277.16856006937456 186.1879189445537,277.1135575358883 185.4372913959125,274.1745412933497 195.05749442445693,271.29444157153256 196.04537006862734,274.16243039688385 196.0648300570955,274.2154641988192 196.1274225373085,274.3729539551639 196.23938183620254,274.63227053888266 196.40682072752136,274.9905063449879 196.6357193827919,275.44448029495936 196.9319145154503,275.99074325196455 197.30108873277612,276.6255838397277 197.74876011003406,277.3450346573869 198.28027200094897,278.14487888217906 198.90078309834814,279.02065725130353 199.61525775849606,279.9676754138363 200.42845660232368,280.9810116430959 201.3449274064133,282.05552489940777 202.36899629624386,283.1858632327664 203.5047592538319,284.36647251446095 204.7560739515168,285.5916054863126 206.12655192323942,286.85533111576103 207.6195510842499,288.151544244648 209.23816860975367,289.4739755191641 215.59233560842145,286.7330554249208 215.74119669833127,284.64820829728836 215.82292362410647,282.6727246400843 215.8442019590433,280.8086539413274 215.8117767755249,279.057743355708 215.7324405352696,277.42143607013026 215.6130209377727,275.90087012328274 215.4603687432679,274.4968776801935 215.28134558655472,273.2099847621568 215.08281179803305,272.0404114318455 214.87161424826698,270.98807243285574 214.65457423235694,270.0525782823604 214.43847541033986,269.23323681497976 214.2300518197568,268.5290551754165 214.03597597642772,267.9387422568363 213.8628470793565,267.46071158142286 213.71717933554942,267.09308461897837 213.6053904203773,266.83369453889617 213.533790088934,266.680090390287 213.50856895365317,266.62954170450746 212.10039087783272,263.9428536508876 220.79708338352253,258.9218158916682 222.41973445209123,261.4846779051909 222.4509003304638,261.53179439194616 222.54812525956442,261.67060417220006 222.71686920081925,261.8971112526417 222.96240961750868,262.20707670051286 223.28983187766934,262.5960260612124 223.70401993967738,263.0592571310864 224.20964733312624,263.59184807506097 224.81116844724335,264.18866587834594 225.51281013870903,264.8443751210095 226.3185636703442,265.5534470638188 227.23217699172176,266.31016903334375 228.25714737233523,267.1086540939415 229.39671439751947,267.94285099387065 230.6538533368705,268.80655437243644 232.03126889445076,269.6934152147271 233.53138934959304,270.5969515401862 235.15636109663512,271.5105593109591 236.90804359142243,272.4275235456666 238.78800471191408,273.34102962398583 244.33879464260593,269.20861963037254 244.00284432686777,267.14564009701746 243.62679040903802,265.20455833131007 243.21761089638352,263.38582677774707 242.78227196858853,261.6895899754973 242.3277158174913,260.1156857607014 241.8608485508467,258.6636469202035 241.38852817622225,257.3327032938792 240.91755268102213,256.12178432216655 240.45464822449748,255.02952203485182 240.00645745745032,254.05425447661173 239.57952798516757,253.19402956426987 239.18030098893013,252.4466093701877 238.8151000212367,251.80947482567973 238.49011998965304,251.27983083781766 238.21141634395667,250.85461181247558 237.9848944809837,250.5304875759593 237.8162993813077,250.3038696870678 237.71120549158383,250.1709181309451 237.67500686608267,250.12754838560667 235.68519350764376,247.83802856929955 242.9895345464422,240.94673821792458 245.1594835002951,243.0663088650976 245.20067510800206,243.1049679746762 245.32729106489668,243.21761450765615 245.54372261896148,243.39910102948494 245.85412741360204,243.64408580159562 246.2624218598575,243.94704221231223 246.77227386558377,244.30226848817517 247.38709593149804,244.70389767271544 248.1100386235143,245.14590785937054 248.94398443033066,245.62213266490954 249.89154201474986,246.12627192943035 250.95504086672162,246.65190262870033 252.1365263655984,247.19248998433915 253.43775525858362,247.74139875708659 254.86019156183647,248.29190470815985 256.405002890169,248.83720621348334 258.0730572207402,249.3704360153726 259.8649200956105,249.8846730960691 261.78085226747453,250.3729546573567 263.8208077923385,250.82828819034467 268.26897613312246,245.52716758975154 267.4663255802153,243.5972714112994 266.6527639828287,241.79523575750818 265.8351855960222,240.1198916379529 265.0204021582314,238.56977318413652 264.2151313360554,237.143121623732 263.4259853354519,235.83788967932125 262.6594596943594,234.65174638515887 261.92192227152606,233.58208231497002 261.219602446068,232.62601521328264 260.55858054200115,231.78039602229552 259.944777491703,231.04181529579236 259.38394475194843,230.40660999113413 258.88165448584175,229.87087062989204 258.44329002362406,229.430448817227 258.0740366149818,229.08096510967624 257.7788724851089,228.81781722057522 257.5625602063917,228.6361885519224 257.4296383971848,228.53105704108998 257.38441375873373,228.4972043103897 254.92023647087382,226.72828133731252 260.43844712672103,218.33824964036864 263.0387114560856,219.90026231897247 263.08770814289335,219.9283799287705 263.2368892285725,220.00879041072608 263.48934051434645,220.13547238857416 263.8478756841138,220.30226929244796 264.3150310571833,220.50290029466254 264.8930607530288,220.73097143603582 265.5839322746943,220.9799869278454 266.3893225169564,221.24336061429796 267.3106142048191,221.51442758017959 268.3488927673801,221.78645588817005 269.5049436515599,222.0526584301329 270.7792500796394,222.30620487654454 272.1719912539943,222.54023370809168 273.68304101185663,222.74786431335687 275.31196693237155,222.92220913641518 277.05802989765084,223.05638585809345 278.92018410895867,223.1435295945878 280.8970775585936,223.1768050970996 282.98705295746174,223.1494189361341 286.0927978017206,216.9653725122831 284.86671811071005,215.27260089124923 283.6595081500643,213.70675955790966 282.4776067515608,212.26512110749385 281.32730398980425,210.94468828918937 280.2147308550096,209.74220053807267 279.1458491856027,208.65414088171894 278.1264418737611,207.67674321172854 277.162103356664,206.80599990995955 276.25823040585163,206.03766981882023 275.42001322671246,205.36728654455257 274.6524268797175,204.7901670820284 273.9602230346121,204.301420749185 273.34792206835095,203.89595841884432 272.8198055171239,203.56850203529598 272.3799088923733,203.31359440267119 272.0320148702422,203.1256092318001 271.7796468634199,202.99876143192589 271.6260629838698,202.927117633345 271.57425040443377,202.90460692675737 268.76855362256987,201.75164389225736 272.20314573067355,192.31517963020548 275.0935445125004,193.23542583242465 275.1477048543409,193.25148611481993 275.3114086778615,193.29532559585545 275.58626998118393,193.36037357150664 275.97360680227246,193.43999054288193 276.4744386350752,193.5274800673337 277.0894842905195,193.61610069995183 277.81916020537784,193.699078009412 278.6635792014579,193.76961665205366 279.6225496970069,193.82091248798417 280.69557537165366,193.84616472294857 281.8818552856427,193.83858805966315 283.1802844535452,193.79142484229348 284.5894548720626,193.69795717775554 286.1076570009675,193.55151901753965 287.7328816956581,193.34550818379418 289.46282258923566,193.07339832346543 291.2948789214488,192.72875077436697 293.226158811285,192.30522632714943 295.25348296943434,191.79659686725685 296.84937280872214,185.06300816353848 295.26596225310936,183.69861885617044 293.7301849306575,182.45338675486573 292.24767713077415,181.3231730756056 290.82386816468295,180.3036107678291 289.4639718229452,179.39011325191524 288.1729781722023,178.57788346132628 286.9556457016568,177.86192317688702 285.8164938293623,177.2370426403198 284.7597957779328,176.6978704338167 283.7895718288131,176.23886361210646 282.90958296377016,175.85431807316783 282.12332490177386,175.53837915345008 281.4340225389376,175.2850524331895 280.8446247986756,175.0882147371539 280.35779989872003,174.94162531591022 279.97593104111286,174.83893719248886 279.7011125307562,174.7737086591178 279.53514632756327,174.73941490851425 279.4795390367107,174.72945978405806 276.4835786005807,174.25461322375853 "/></svg>